<svg width="7" height="12" viewBox="0 0 7 12" fill="none" xmlns="http://www.w3.org/2000/svg">
<path d="M1.08984 11.6797C1.38184 11.6797 1.6167 11.5781 1.81982 11.375L6.59961 6.71582C6.87256 6.44287 6.99316 6.17627 6.99951 5.83984C6.99951 5.50977 6.87256 5.23047 6.59961 4.96387L1.82617 0.29834C1.6167 0.101562 1.37549 0 1.08984 0C0.505859 0 0.0234375 0.469727 0.0234375 1.05371C0.0234375 1.3457 0.150391 1.6123 0.366211 1.83447L4.51123 5.84619L0.366211 9.84521C0.144043 10.0674 0.0234375 10.334 0.0234375 10.626C0.0234375 11.2036 0.505859 11.6797 1.08984 11.6797Z" fill="#8D8D97"/>
</svg>
