<svg width="36" height="26" viewBox="0 0 36 26" xmlns="http://www.w3.org/2000/svg">
<path fill="#868C98" fill-rule="evenodd" clip-rule="evenodd" d="M19.6049 0C26.6005 0 32.2716 5.67105 32.2716 12.6667C32.2716 19.6622 26.6005 25.3333 19.6049 25.3333H13.6049C6.60934 25.3333 0.938293 19.6622 0.938293 12.6667C0.938293 5.67105 6.60934 0 13.6049 0H19.6049ZM28.4098 1.05005C31.8278 2.43896 35.8762 6.31207 35.8762 12.4268C35.8762 18.5479 32.143 23.0072 28.4098 24.1298C31.0446 21.8618 33.961 18.5479 33.961 12.4268C33.961 6.31207 30.117 2.99048 28.4098 1.05005ZM10.2881 17.138C9.95706 17.0811 9.58 17.1033 9.19362 17.1926L8.91607 17.6733L8.90305 17.6959C8.83893 17.807 8.56031 18.2896 8.55749 18.2945C8.52831 18.345 8.49917 18.3956 8.47031 18.4463C8.44335 18.4936 8.41667 18.5411 8.39069 18.589C8.33413 18.6934 8.28031 18.8006 8.23994 18.9129C8.19903 19.0269 8.17392 19.1404 8.16772 19.2617C8.16156 19.381 8.17211 19.5045 8.20323 19.62C8.23436 19.7353 8.28041 19.8507 8.34573 19.9509C8.41213 20.0529 8.48618 20.1463 8.58076 20.2224C8.6739 20.2974 8.71162 20.3179 8.74636 20.338C8.78113 20.3581 8.81789 20.3805 8.92937 20.4237C9.04259 20.4676 9.16047 20.485 9.28206 20.4915C9.40144 20.498 9.52436 20.4802 9.63983 20.4495C9.75533 20.4187 9.86762 20.3661 9.96782 20.3011C10.0697 20.2351 10.1555 20.1565 10.2337 20.0641C10.3107 19.9731 10.3767 19.8729 10.4388 19.7716L10.5226 19.6313C10.5519 19.5812 10.5809 19.531 10.6099 19.4807C10.6133 19.475 10.9657 18.8645 10.969 18.8587L11.5235 17.8982L11.4105 17.7507C11.0949 17.3818 10.6721 17.2039 10.2881 17.138ZM17.8571 8.22187C17.5271 8.5507 17.2027 9.07286 17.0689 9.60229C16.8721 10.3811 16.8952 11.2973 17.4086 12.1866L17.6872 12.6692L18.6179 14.2814L19.9814 16.6432L21.2603 18.8587L21.2734 18.8814C21.3377 18.9927 21.6164 19.4756 21.6194 19.4808C21.6484 19.531 21.6774 19.5812 21.7067 19.6313L21.7906 19.7717C21.8527 19.8729 21.9186 19.973 21.9957 20.0641C22.0738 20.1566 22.1596 20.2351 22.2615 20.3011C22.3617 20.3661 22.474 20.4187 22.5895 20.4495C22.705 20.4802 22.8279 20.498 22.9473 20.4915C23.0689 20.485 23.1868 20.4676 23.3 20.4237C23.4115 20.3805 23.4482 20.3581 23.483 20.338C23.5178 20.3179 23.5555 20.2974 23.6486 20.2224C23.7432 20.1463 23.8172 20.0529 23.8836 19.9509C23.9489 19.8507 23.995 19.7353 24.0261 19.6199C24.0573 19.5045 24.0678 19.381 24.0617 19.2617C24.0554 19.1404 24.0303 19.0269 23.9894 18.9129C23.9491 18.8007 23.8952 18.6935 23.8387 18.589C23.8127 18.5411 23.786 18.4936 23.759 18.4462L23.6719 18.2945L23.6588 18.2719C23.5947 18.1609 23.3161 17.6782 23.3133 17.6734L22.7186 16.6432L24.1104 16.6428L24.1918 16.6421L24.2733 16.6404C24.3915 16.6372 24.5108 16.6303 24.6278 16.6092C24.7465 16.5877 24.8569 16.5528 24.9647 16.4978C25.0707 16.4437 25.172 16.373 25.2561 16.2887C25.3401 16.2044 25.4167 16.1072 25.4706 16.0009C25.5256 15.8928 25.5692 15.7824 25.5878 15.6628C25.606 15.5451 25.605 15.5023 25.605 15.4624L25.6049 15.4307C25.6043 15.3962 25.6015 15.35 25.5878 15.2617C25.5692 15.1422 25.5256 15.0318 25.4706 14.9237C25.4167 14.8174 25.3401 14.7202 25.2561 14.6359C25.172 14.5516 25.0707 14.4809 24.9647 14.4268C24.8569 14.3717 24.7465 14.3368 24.6278 14.3154C24.5108 14.2943 24.3915 14.2873 24.2733 14.2841C24.219 14.2827 24.1647 14.2821 24.1104 14.2817L21.3551 14.2814L19.7402 11.4838L17.8571 8.22187ZM17.7456 3.66792C17.6262 3.66146 17.5033 3.67925 17.3879 3.70998C17.2723 3.74074 17.1601 3.79336 17.0599 3.85834C16.958 3.92437 16.8721 4.00288 16.794 4.09529C16.7169 4.18638 16.651 4.28657 16.5889 4.38779C16.5604 4.43427 16.5326 4.48111 16.5051 4.52814C16.4756 4.5785 16.4464 4.62899 16.4172 4.67954C16.4141 4.68505 16.4109 4.69056 16.4077 4.69604L16.1147 5.20361L15.8217 4.69604L15.8169 4.6878C15.7829 4.62899 15.7538 4.5785 15.7243 4.52814L15.6405 4.38779L15.5435 4.23774L15.4354 4.09529C15.3572 4.00288 15.2714 3.92437 15.1695 3.85834C15.0693 3.79336 14.957 3.74074 14.8415 3.70998C14.7261 3.67925 14.6031 3.66146 14.4837 3.66792C14.3621 3.67443 14.2443 3.69188 14.131 3.73573C14.0196 3.77893 13.9829 3.80128 13.9482 3.82136C13.9134 3.84146 13.8756 3.86206 13.7824 3.93701C13.6879 4.01317 13.6138 4.10652 13.5474 4.20858C13.4821 4.30877 13.4361 4.42414 13.4049 4.5395C13.3738 4.65492 13.3632 4.77847 13.3694 4.89772C13.3756 5.01904 13.4007 5.1326 13.4416 5.24652C13.482 5.35876 13.5358 5.46597 13.5924 5.57039C13.6184 5.61833 13.645 5.66578 13.672 5.71318C13.7007 5.76359 13.7297 5.81384 13.7587 5.86407C13.762 5.86987 13.7654 5.87567 13.7687 5.88147L14.7461 7.57442L12.4892 11.4838L10.8742 14.2813L8.09964 14.2817C8.04532 14.2821 7.99107 14.2827 7.93678 14.2841C7.8185 14.2873 7.69922 14.2943 7.58223 14.3154C7.46358 14.3368 7.35313 14.3717 7.24535 14.4268C7.13938 14.4809 7.03805 14.5516 6.95396 14.6359C6.86993 14.7202 6.79334 14.8174 6.73943 14.9237C6.68451 15.0318 6.64078 15.1422 6.62223 15.2617C6.60855 15.3501 6.6057 15.3963 6.60513 15.4307V15.494C6.6057 15.5284 6.60855 15.5745 6.62223 15.6628C6.64078 15.7824 6.68451 15.8928 6.73943 16.0009C6.79334 16.1072 6.86993 16.2044 6.95396 16.2887C7.03805 16.373 7.13938 16.4437 7.24535 16.4978C7.35313 16.5528 7.46358 16.5878 7.58223 16.6092C7.69922 16.6303 7.8185 16.6372 7.93678 16.6404C7.99107 16.6419 8.04532 16.6425 8.09964 16.6428L18.6572 16.6432L18.7156 16.4739C18.9309 15.753 18.6682 15.202 18.4129 14.885C18.0754 14.4661 17.5984 14.2813 17.0396 14.2813H13.6115L14.5422 12.6692L16.1147 9.94522L17.4833 7.57442L18.4606 5.88147L18.4657 5.87277C18.4997 5.81384 18.5287 5.76359 18.5574 5.71318C18.5843 5.66578 18.611 5.61833 18.637 5.57039C18.6936 5.46597 18.7474 5.35876 18.7877 5.24652C18.8287 5.1326 18.8538 5.01904 18.86 4.89772C18.8661 4.77847 18.8555 4.65492 18.8245 4.5395C18.7933 4.42414 18.7473 4.30877 18.682 4.20858C18.6155 4.10652 18.5415 4.01317 18.4469 3.93701C18.3538 3.86206 18.316 3.84146 18.2812 3.82136C18.2464 3.80128 18.2098 3.77893 18.0983 3.73573C17.9851 3.69188 17.8672 3.67443 17.7456 3.66792Z" />
</svg>
