<svg width="340" height="21" viewBox="0 0 340 21" fill="none" xmlns="http://www.w3.org/2000/svg">
<path opacity="0.35" d="M317.667 5.83325H334.333C335.53 5.83325 336.5 6.8033 336.5 7.99992V13.9999C336.5 15.1965 335.53 16.1666 334.333 16.1666H317.667C316.47 16.1666 315.5 15.1965 315.5 13.9999V7.99992C315.5 6.8033 316.47 5.83325 317.667 5.83325Z" stroke="white"/>
<path opacity="0.4" d="M338 9V13C338.805 12.6612 339.328 11.8731 339.328 11C339.328 10.1269 338.805 9.33878 338 9" fill="white"/>
<path d="M317 8.66659C317 7.93021 317.597 7.33325 318.333 7.33325H333.667C334.403 7.33325 335 7.93021 335 8.66659V13.3333C335 14.0696 334.403 14.6666 333.667 14.6666H318.333C317.597 14.6666 317 14.0696 317 13.3333V8.66659Z" fill="white"/>
<path fill-rule="evenodd" clip-rule="evenodd" d="M302.33 7.60789C304.546 7.60799 306.677 8.45943 308.283 9.98623C308.404 10.1041 308.597 10.1026 308.716 9.98289L309.872 8.81623C309.933 8.7555 309.966 8.67325 309.966 8.58767C309.965 8.50209 309.931 8.42024 309.87 8.36023C305.655 4.32068 299.005 4.32068 294.79 8.36023C294.729 8.4202 294.694 8.50202 294.693 8.5876C294.693 8.67318 294.726 8.75546 294.787 8.81623L295.943 9.98289C296.062 10.1028 296.255 10.1043 296.376 9.98623C297.982 8.45933 300.114 7.60789 302.33 7.60789ZM302.33 11.4036C303.547 11.4035 304.721 11.856 305.624 12.6732C305.746 12.7892 305.938 12.7867 306.057 12.6676L307.212 11.5009C307.273 11.4397 307.307 11.3567 307.306 11.2704C307.305 11.1842 307.269 11.1018 307.207 11.0419C304.459 8.48551 300.203 8.48551 297.455 11.0419C297.393 11.1018 297.357 11.1842 297.357 11.2705C297.356 11.3568 297.39 11.4398 297.451 11.5009L298.605 12.6676C298.724 12.7867 298.916 12.7892 299.038 12.6732C299.94 11.8566 301.113 11.4041 302.33 11.4036ZM304.643 13.9574C304.645 14.0439 304.611 14.1273 304.549 14.1879L302.552 16.2036C302.493 16.2628 302.413 16.2961 302.33 16.2961C302.247 16.2961 302.167 16.2628 302.108 16.2036L300.111 14.1879C300.049 14.1272 300.015 14.0438 300.017 13.9573C300.019 13.8708 300.056 13.7889 300.12 13.7309C301.396 12.652 303.264 12.652 304.54 13.7309C304.604 13.7889 304.641 13.8709 304.643 13.9574Z" fill="white"/>
<path fill-rule="evenodd" clip-rule="evenodd" d="M288.667 5.6665H287.667C287.114 5.6665 286.667 6.11422 286.667 6.6665V15.3332C286.667 15.8855 287.114 16.3332 287.667 16.3332H288.667C289.219 16.3332 289.667 15.8855 289.667 15.3332V6.6665C289.667 6.11422 289.219 5.6665 288.667 5.6665ZM283 7.99984H284C284.552 7.99984 285 8.44755 285 8.99984V15.3332C285 15.8855 284.552 16.3332 284 16.3332H283C282.448 16.3332 282 15.8855 282 15.3332V8.99984C282 8.44755 282.448 7.99984 283 7.99984ZM279.333 10.3332H278.333C277.781 10.3332 277.333 10.7809 277.333 11.3332V15.3332C277.333 15.8855 277.781 16.3332 278.333 16.3332H279.333C279.885 16.3332 280.333 15.8855 280.333 15.3332V11.3332C280.333 10.7809 279.885 10.3332 279.333 10.3332ZM274.667 12.3332H273.667C273.114 12.3332 272.667 12.7809 272.667 13.3332V15.3332C272.667 15.8855 273.114 16.3332 273.667 16.3332H274.667C275.219 16.3332 275.667 15.8855 275.667 15.3332V13.3332C275.667 12.7809 275.219 12.3332 274.667 12.3332Z" fill="white"/>
<path d="M16.3208 16.2563C19.0088 16.2563 20.6055 14.1543 20.6055 10.5947C20.6055 9.25439 20.3491 8.12646 19.8584 7.25488C19.1479 5.8999 17.9248 5.16748 16.3794 5.16748C14.0796 5.16748 12.4536 6.71289 12.4536 8.88086C12.4536 10.917 13.9185 12.3965 15.9326 12.3965C17.1704 12.3965 18.1738 11.8179 18.6719 10.8145H18.6938C18.6938 10.8145 18.7231 10.8145 18.7305 10.8145C18.7451 10.8145 18.7964 10.8145 18.7964 10.8145C18.7964 13.2314 17.8809 14.6743 16.3354 14.6743C15.4272 14.6743 14.7241 14.1763 14.4824 13.3779H12.6001C12.915 15.1138 14.3872 16.2563 16.3208 16.2563ZM16.3867 10.895C15.1709 10.895 14.3066 10.0308 14.3066 8.82227C14.3066 7.64307 15.2148 6.74219 16.394 6.74219C17.5732 6.74219 18.4814 7.65771 18.4814 8.85156C18.4814 10.0308 17.5952 10.895 16.3867 10.895Z" fill="white"/>
<path d="M23.6966 16.1538C24.3924 16.1538 24.8685 15.6558 24.8685 14.9966C24.8685 14.3301 24.3924 13.8394 23.6966 13.8394C23.0081 13.8394 22.5247 14.3301 22.5247 14.9966C22.5247 15.6558 23.0081 16.1538 23.6966 16.1538ZM23.6966 10.6606C24.3924 10.6606 24.8685 10.1699 24.8685 9.51074C24.8685 8.84424 24.3924 8.35352 23.6966 8.35352C23.0081 8.35352 22.5247 8.84424 22.5247 9.51074C22.5247 10.1699 23.0081 10.6606 23.6966 10.6606Z" fill="white"/>
<path d="M31.7242 16H33.5333V14.0298H34.9615V12.4331H33.5333V5.43115H30.8673C28.9996 8.24365 27.5128 10.5947 26.5606 12.3452V14.0298H31.7242V16ZM28.3111 12.3672C29.5416 10.1992 30.6402 8.46338 31.651 6.96924H31.7535V12.4771H28.3111V12.3672Z" fill="white"/>
<path d="M38.9901 16H40.8798V5.43115H38.9975L36.2362 7.36475V9.18115L38.8656 7.33545H38.9901V16Z" fill="white"/>
</svg>
